<svg width="458" height="146" viewBox="0 0 458 146" fill="none" xmlns="http://www.w3.org/2000/svg">
<g clip-path="url(#clip0_202_1098)">
<path d="M0.0151372 145.475L39.5433 0.302831C39.5938 0.12618 39.7552 0 39.9419 0H457.586C457.813 0 458 0.186746 458 0.413869C458 0.4492 457.995 0.489577 457.985 0.524908L418.462 145.697C418.411 145.874 418.25 146 418.063 146H0.413749C0.186692 146 0 145.813 0 145.586C0 145.551 0.00504572 145.51 0.0151372 145.475ZM200.179 64.4274C200.244 64.9674 199.624 66.1939 199.412 67.0317C196.939 76.9141 194.583 84.9997 191.066 98.4C186.409 116.161 184.053 125.13 183.997 125.301C183.952 125.448 184.033 125.604 184.179 125.65C184.204 125.66 184.229 125.66 184.255 125.66L232.365 125.69C232.542 125.69 232.704 125.569 232.749 125.397L260.773 20.7742C260.828 20.5673 260.707 20.3604 260.5 20.3048C260.47 20.2947 260.435 20.2897 260.4 20.2897H192.096C191.687 20.2897 191.298 20.4663 191.031 20.7692C189.426 22.5912 188.094 24.5445 186.414 26.5179C184.093 29.2384 180.062 34.1392 174.314 41.2204C165.656 51.88 161.655 56.4175 154.894 65.1188C153.117 67.4052 150.499 70.6253 147.032 74.7892C146.563 75.3545 146.195 76.1469 145.942 76.4043C145.741 76.6062 145.413 76.6113 145.211 76.4094C145.15 76.3488 145.105 76.2781 145.08 76.1974L127.677 20.6985C127.601 20.4512 127.369 20.2796 127.112 20.2796H58.7725C58.6464 20.2796 58.5354 20.3553 58.495 20.4714C57.9249 21.9755 57.4455 23.5098 57.057 25.0694C54.9075 33.7404 49.5641 52.95 40.4364 86.3523C35.5976 104.058 32.0857 117.024 29.906 125.251C29.8606 125.418 29.9615 125.589 30.133 125.635C30.1583 125.64 30.1885 125.645 30.2138 125.645H78.5619C78.693 125.645 78.8091 125.554 78.8444 125.428L95.127 64.6545C95.1825 64.4526 95.3944 64.3365 95.5962 64.392C95.7173 64.4274 95.8081 64.5132 95.8485 64.6343L115.562 125.074C115.698 125.488 116.087 125.766 116.521 125.761C126.819 125.625 137.067 125.609 147.259 125.72C148.324 125.73 148.829 125.453 149.469 124.625C152.865 120.264 156.11 116.277 159.198 112.663C166.781 103.78 174.431 94.0846 182.12 85.1662C186.611 79.9626 191.975 73.1388 196.632 67.6979C197.646 66.5118 198.69 65.3712 199.76 64.286C199.856 64.1901 200.012 64.1851 200.108 64.286C200.149 64.3264 200.174 64.3769 200.179 64.4324V64.4274ZM247.886 125.675H296.204C296.259 125.675 296.31 125.64 296.325 125.584L304.968 93.3225C305.039 93.05 305.286 92.8632 305.569 92.8632C321.306 92.8733 336.615 92.8632 351.485 92.838C359.22 92.8228 363.938 92.7673 365.643 92.6815C374.458 92.2323 382.915 90.8443 391.154 88.0431C395.034 86.7258 398.577 84.9997 401.781 82.8647C412.785 75.5312 418.81 64.8311 419.844 50.7646C420.142 46.7319 419.612 42.8102 418.25 39.0047C416.272 33.478 411.302 28.4106 405.979 25.9022C397.224 21.7837 387.128 20.2846 377.496 20.2897C319.273 20.3048 285.441 20.2998 275.991 20.2846C275.875 20.2846 275.774 20.3604 275.749 20.4714L247.649 125.362C247.614 125.493 247.689 125.63 247.821 125.665C247.841 125.67 247.861 125.675 247.886 125.675ZM398.112 115.116C398.112 108.08 392.411 102.377 385.377 102.377C378.343 102.377 372.642 108.08 372.642 115.116C372.642 122.152 378.343 127.855 385.377 127.855C392.411 127.855 398.112 122.152 398.112 115.116Z" fill="white"/>
<path d="M312.704 65.6084C312.567 65.6084 312.456 65.4974 312.456 65.3611C312.456 65.3409 312.456 65.3207 312.466 65.3005L317.361 47.3174C317.391 47.2064 317.487 47.1306 317.603 47.1306C343.689 47.1458 356.838 47.1508 357.05 47.1508C359.392 47.1508 361.486 47.3123 363.337 47.6253C368.181 48.4429 370.977 51.9911 369.68 56.9626C368.903 59.9354 367.273 62.3933 364.372 63.6198C359.8 65.5579 355.078 65.5933 349.835 65.5882C337.993 65.5781 325.616 65.5882 312.704 65.6084Z" fill="white"/>
<path d="M394.727 115.116C394.727 120.274 390.544 124.459 385.387 124.459C380.23 124.459 376.047 120.274 376.047 115.116C376.047 109.958 380.23 105.774 385.387 105.774C390.544 105.774 394.727 109.958 394.727 115.116ZM390.629 119.528C390.73 119.497 390.791 119.396 390.766 119.29C390.751 119.245 390.725 119.204 390.68 119.179C389.792 118.629 389.398 117.983 389.494 117.236C389.504 117.15 389.53 117.075 389.57 116.999L390.69 114.94C390.735 114.854 390.761 114.763 390.771 114.667C390.998 111.972 388.697 110.634 386.315 110.675C384.691 110.7 382.874 110.745 380.861 110.806C380.538 110.816 380.286 111.084 380.286 111.407V119.159C380.286 119.376 380.437 119.563 380.649 119.603C381.522 119.78 382.466 119.664 383.49 119.26C383.651 119.194 383.772 119.058 383.818 118.892L384.166 117.605C384.252 117.271 384.59 117.075 384.923 117.16C385.084 117.201 385.226 117.307 385.306 117.453L385.977 118.619C386.078 118.796 386.23 118.937 386.406 119.038C387.703 119.77 389.111 119.931 390.629 119.528Z" fill="white"/>
<path d="M383.551 114.089L383.547 114.159C383.531 114.412 383.724 114.63 383.977 114.646L386.475 114.798C386.728 114.814 386.946 114.621 386.961 114.368L386.966 114.298C386.981 114.044 386.788 113.826 386.535 113.811L384.037 113.658C383.784 113.643 383.566 113.835 383.551 114.089Z" fill="white"/>
</g>
<defs>
<clipPath id="clip0_202_1098">
<rect width="458" height="146" fill="white"/>
</clipPath>
</defs>
</svg>
