<svg width="18" height="18" viewBox="0 0 18 18" fill="none" xmlns="http://www.w3.org/2000/svg">
<path d="M17.6006 7.86629L16.3765 6.44464C16.1425 6.1747 15.9535 5.67083 15.9535 5.31092V3.7813C15.9535 2.82754 15.1704 2.04474 14.2164 2.04474H12.6863C12.3353 2.04474 11.8222 1.85579 11.5522 1.62184L10.1301 0.39815C9.50911 -0.132717 8.49205 -0.132717 7.86201 0.39815L6.44889 1.63084C6.17887 1.85579 5.66584 2.04474 5.31482 2.04474H3.75773C2.80367 2.04474 2.02062 2.82754 2.02062 3.7813V5.31992C2.02062 5.67083 1.83161 6.1747 1.6066 6.44464L0.391524 7.87529C-0.130508 8.49613 -0.130508 9.50388 0.391524 10.1247L1.6066 11.5554C1.83161 11.8253 2.02062 12.3292 2.02062 12.6801V14.2187C2.02062 15.1725 2.80367 15.9553 3.75773 15.9553H5.31482C5.66584 15.9553 6.17887 16.1442 6.44889 16.3782L7.87101 17.6019C8.49205 18.1327 9.50911 18.1327 10.1391 17.6019L11.5612 16.3782C11.8312 16.1442 12.3353 15.9553 12.6953 15.9553H14.2254C15.1794 15.9553 15.9625 15.1725 15.9625 14.2187V12.6891C15.9625 12.3382 16.1515 11.8253 16.3855 11.5554L17.6096 10.1337C18.1316 9.51288 18.1316 8.48713 17.6006 7.86629ZM12.7403 7.29943L8.39304 11.6453C8.26703 11.7713 8.09602 11.8433 7.91601 11.8433C7.736 11.8433 7.56499 11.7713 7.43898 11.6453L5.26082 9.46789C4.9998 9.20695 4.9998 8.77506 5.26082 8.51413C5.52183 8.25319 5.95386 8.25319 6.21487 8.51413L7.91601 10.2147L11.7862 6.34566C12.0473 6.08473 12.4793 6.08473 12.7403 6.34566C13.0013 6.6066 13.0013 7.03849 12.7403 7.29943Z" fill="#E10000"/>
</svg>
